<?xml version="1.0" encoding="utf-8"?>
<!-- Generator: Adobe Illustrator 16.0.0, SVG Export Plug-In . SVG Version: 6.00 Build 0)  -->
<!DOCTYPE svg PUBLIC "-//W3C//DTD SVG 1.1//EN" "http://www.w3.org/Graphics/SVG/1.1/DTD/svg11.dtd">
<svg version="1.1" id="Layer_1" xmlns="http://www.w3.org/2000/svg" xmlns:xlink="http://www.w3.org/1999/xlink" x="0px" y="0px"
	 width="595.279px" height="595.279px" viewBox="0 0.001 595.279 595.279" enable-background="new 0 0.001 595.279 595.279"
	 xml:space="preserve">
<path id="color_x5F_6" fill="#C0C0C0" d="M20.713,566c5.169-24.76,47-41.852,95.854-54.773c0,0,154.105-46.58,191.426-114.785
	c38.239-69.88,72.65-100.9,163.972-100.9c38.903,0,74.664,6.29,102.902,16.812V566H20.713z M404.99,292.69
	c0.011,0.012,0.016,0.018,0.016,0.018l3.281-31.752l-15.426,4.438C398.981,280.123,404.719,292.106,404.99,292.69z M514.133,254.766
	l-5.286,15.154c15.557,3.513,28.651,5.748,29.29,5.863c0.015-0.001,0.021-0.001,0.021-0.001L514.133,254.766z M175.416,99.773v-18.1
	c0-1.104-0.896-2-2-2c-1.104,0-2,0.896-2,2v18.099c0,1.104,0.896,2,2,2C174.52,101.772,175.416,100.877,175.416,99.773z
	 M175.416,165.373v-18.098c0-1.104-0.896-2-2-2c-1.104,0-2,0.896-2,2v18.098c0,1.104,0.896,2,2,2
	C174.52,167.373,175.416,166.477,175.416,165.373z M151.664,123.524c0-1.104-0.896-2-2-2h-18.098c-1.104,0-2,0.896-2,2
	c0,1.104,0.896,2,2,2h18.098C150.768,125.524,151.664,124.628,151.664,123.524z M217.267,123.524c0-1.104-0.896-2-2-2H197.17
	c-1.104,0-2,0.896-2,2c0,1.104,0.896,2,2,2h18.097C216.371,125.524,217.267,124.628,217.267,123.524z M158.035,108.143
	c0.781-0.781,0.781-2.047,0-2.828l-12.798-12.798c-0.78-0.781-2.048-0.781-2.828,0c-0.781,0.78-0.781,2.047,0,2.828l12.798,12.798
	c0.391,0.391,0.902,0.586,1.414,0.586S157.645,108.534,158.035,108.143z M204.423,154.529c0.781-0.781,0.781-2.047,0-2.828
	l-12.798-12.797c-0.78-0.781-2.048-0.781-2.828,0s-0.78,2.047,0,2.828l12.799,12.797c0.391,0.391,0.901,0.586,1.413,0.586
	S204.032,154.92,204.423,154.529z M145.237,154.529l12.798-12.796c0.781-0.782,0.781-2.048,0-2.829c-0.782-0.781-2.048-0.78-2.829,0
	L142.408,151.7c-0.781,0.782-0.781,2.048,0,2.829c0.391,0.391,0.903,0.586,1.415,0.586S144.846,154.92,145.237,154.529z
	 M191.625,108.142l12.798-12.797c0.781-0.781,0.781-2.048,0-2.828c-0.779-0.781-2.047-0.781-2.827,0l-12.799,12.797
	c-0.78,0.781-0.78,2.047,0,2.828c0.391,0.391,0.902,0.586,1.414,0.586S191.234,108.533,191.625,108.142z"/>
<path id="color_x5F_5" fill="#F5A6A3" d="M341.568,153.778l-17.071-3.052c-2.234,3.923-4.898,7.208-7.317,8.919
	c-5.425,3.837-8.046-1.343-11.614-7.76c-0.646,0.293-1.261,0.487-1.761,0.537c-2.235,0.219-1.403-2.429-1.661-5.075
	c-0.038-0.388-0.03-0.767,0.005-1.134c-0.121-0.181-0.244-0.358-0.37-0.539c-5.978-8.451-5.038-19.397,2.102-24.447
	c7.14-5.049,17.774-2.289,23.754,6.163c0.23,0.326,0.432,0.675,0.619,1.031h30.842L341.568,153.778z M87.735,313.607
	c0.764-10.351-12.432-14.611-15.558-11.023c-6.772,7.775-15.957,39.929-13.84,54.524c-2.598,4.563-1.32,15.214,5.996,19.561
	c4.791,2.848,8.233-4.429,8.233-4.429s5.606-6.652,4.593-8.921c-0.973-2.173-5.255-4.606-9.271-6.262
	c3.583-5.862,6.864-13.621,6.864-13.621S87.3,319.491,87.735,313.607z M201.862,244.901c0.611-0.354,1.128-0.742,1.459-1.12
	c1.478-1.693-1.16-2.553-3.165-4.303c-0.293-0.256-0.604-0.472-0.924-0.655c-0.076-0.203-0.152-0.406-0.225-0.613
	c-3.402-9.776-12.855-15.376-21.115-12.502s-12.195,13.133-8.79,22.911c0.004,0.012,0.01,0.023,0.015,0.036l-12.904,19.222
	l26.259,7.421l7.439-15.664c4.492,0.462,8.714,0.203,11.512-0.771C207.699,256.679,205.008,251.535,201.862,244.901z
	 M297.417,246.737c0,0-7.079-5.05-9.26-3.858c-2.523,1.385-5.039,7.618-6.221,12.263c-6.743,2.282-16.833,8.772-16.833,8.772
	s-22.708,12.094-27.228,16.969c-0.11,0.121-0.223,0.242-0.312,0.354c-5.591,7.019,0.01,16.163,4.604,17.726
	c0.718,0.244,1.41,0.312,2.032,0.147c9.741-2.542,34.483-22.982,41.677-36.281c5.272,0.799,13.421-1.705,16.618-8.242
	C304.947,249.584,297.417,246.737,297.417,246.737z M339.683,199.495c0,0-0.11,6.856,0.538,14.298
	c-5.922,2.547-24.854,20.48-24.854,20.48s-25.853,19.292-20.277,21.944c8.577,4.085,40.104-12.84,54.214-24.454
	c10.551-4.373,18.555-30.458,20.883-51.726h-28.614C340.229,188.919,339.683,199.495,339.683,199.495z M478.302,100.133
	c-8.545-8.196-30.519-17.031-44.172-19.688c-11.193-5.591-40.084,6.842-57.942,19.407c1.123-0.688,1.784-1.063,1.784-1.063
	l16.105,22.774c8.481-4.139,21.207-13.283,21.207-13.283s5.425-4.196,10.83-9.352c5.687,3.033,31.521,6.614,31.521,6.614
	s8.221,1.839,15.073,2.331c-0.987,4.231-1.496,9.131-0.295,11.187c1.259,2.144,9.931,1.447,9.931,1.447s7.92,1.43,8.39-4.126
	C491.451,107.899,483.527,100.671,478.302,100.133z"/>
<path id="color_x5F_4" fill="#08787D" d="M331.947,565.496c2.077-22.461,21.2-40.061,44.511-40.061
	c9.826,0,18.878,3.16,26.259,8.461c-0.552-2.265-0.871-4.617-0.871-7.047c0-16.657,13.688-30.161,30.571-30.161
	c12.459,0,23.155,7.369,27.923,17.915c1.885-21.425,20.088-38.246,42.295-38.246c23.465,0,42.484,18.766,42.484,41.912
	c0,5.029-0.945,9.83-2.592,14.298c0.854-0.074,1.714-0.127,2.592-0.127c16.122,0,29.198,12.897,29.198,28.806
	c0,1.445-0.142,2.862-0.351,4.25H331.947z M281.252,440.844h0.667c-0.747-5.487-0.645-11.079-0.256-16.603
	c0.47-6.713,0.98-13.576,3.381-19.923c0.488-1.294,2.585-0.734,2.09,0.575c-0.983,2.602-1.645,5.297-2.125,8.033
	c-0.425,2.896-0.76,5.805-1.01,8.722c-0.063,0.867-0.117,1.732-0.169,2.593c-0.331,5.544-0.489,11.112,0.285,16.603h5.736
	c0.021-2.025,0.188-6.04,0.999-12.181c1.226-9.284,3.679-15.6,3.434-24.886c-0.244-9.285-11.529-8.915-16.68,0
	c-5.152,8.914,0,36.401,0,36.401L281.252,440.844z M274.039,440.844c-1.911-1.96-3.841-3.904-5.786-5.832
	c-1.271-0.973-2.562-1.934-3.777-2.98c-4.561-3.925-9.219-7.712-13.411-12.034c-0.976-1.003,0.558-2.535,1.532-1.53
	c4.427,4.563,9.313,8.878,14.333,12.779c2.488,1.938,5.098,3.767,7.291,5.99c-0.826-3.41-1.48-6.854-1.833-10.343
	c-4.783-5.739-10.422-11.401-14.946-12.743c-9.874-2.924-18.315,4.573-12.104,11.479c6.038,6.713,11.998,9.645,19.012,15.214
	H274.039L274.039,440.844z M303.079,429.488c4.176-3.694,7.954-7.785,12.543-10.984c1.148-0.806,2.23,1.075,1.095,1.869
	c-4.771,3.329-8.828,7.651-13.148,11.528c-3.203,2.873-6.434,5.721-9.271,8.94h8.822c6.812-5.335,12.643-8.288,18.545-14.852
	c6.212-6.907-2.229-14.401-12.104-11.479c-4.527,1.34-11,7.004-15.781,12.743c-0.44,4.336-0.665,8.604-1.664,12.822
	C295.421,436.211,299.255,432.873,303.079,429.488z M250.654,452.488c7.417-4.681,16.596-10.472,18.229-11.21
	c7.34-0.076,12.91-0.32,17.396-0.516c17.152-0.752,17.149-0.75,36.647,12.876c0.678,0.473,1.612,0.309,2.089-0.37
	c0.475-0.68,0.309-1.614-0.37-2.089c-20.145-14.076-20.503-14.197-38.497-13.414c-4.51,0.198-10.122,0.443-17.526,0.515
	c-0.865,0.01-1.824,0.475-19.568,11.671c-8.166,5.152-18.305,11.549-19.841,12.156c-0.692,0.133-1.216,0.742-1.216,1.473
	c0,0.828,0.671,1.5,1.5,1.5C230.469,465.08,232.537,463.92,250.654,452.488z"/>
<path id="color_x5F_3" fill="#240C0D" d="M304.962,142.37c0.473-0.323,1.269,0.039,1.779,0.805c0.519,0.77,0.551,1.653,0.088,1.975
	c-0.471,0.324-1.263-0.042-1.78-0.808C304.531,143.575,304.497,142.69,304.962,142.37z M305.451,109.753l-0.047,0.033
	c-0.161,0.106-0.323,0.221-0.484,0.335c-3.244,2.294-1.814,1.895-4.578,4.03c-0.541,0.418-1.246,0.935-2.177,1.592
	c-4.08,2.86-8.396,2.488-11.831,4.917c-4.642,3.285-5.7,9.768-2.371,14.474c3.31,4.679,9.695,5.854,14.332,2.66l0.104-0.072
	c0.667-0.474,9.207-6.111,8.536-5.271c0.874,4.649,3.175,8.407,6.396,10.216c-0.329-1.352-0.351-2.766,0.066-4.072
	c0.793-2.497,3.418-4.57,6.147-3.99c2.032,0.435,3.06,2.332,2.965,4.328c-0.037,0.872-0.235,1.699-0.581,2.458
	c-0.324,0.726-0.769,1.39-1.315,1.96c1.227-0.398,2.415-1.037,3.535-1.893c2.119-1.593,3.981-3.938,5.348-6.798
	c0.024-0.032,0.037-0.06,0.049-0.094c0.645-1.356,1.185-2.825,1.583-4.38c0.169-0.671,0.313-1.357,0.438-2.056
	c0.448-2.592-0.005-8.795-2.665-13.195C325.496,109.299,318.61,102.031,305.451,109.753z M404.99,292.692
	c-10.861,11.681-19.753,18.13-20.175,18.619c-0.003,0.015,0.037-0.012,0.037-0.012l29.721-10.143L404.99,292.692z M538.136,275.785
	c2.646,15.732,2.27,26.836,2.401,27.465c0.012,0.018,0.014-0.03,0.014-0.03l11.289-29.787L538.136,275.785z M194.468,238.879
	c-0.534,0.194-0.702,1.055-0.379,1.916c0.325,0.867,1.025,1.409,1.557,1.22c0.536-0.195,0.701-1.053,0.38-1.917
	C195.699,239.229,194.999,238.687,194.468,238.879z M49.171,535.837l34.066-14.608c0,0-13.505-0.951-29.165-3.988L49.171,535.837z
	 M222.132,477.41h31.848c0,0,0.047,0.017,0.034,0.002c-0.548-0.335-11.785-7.384-25.715-15.158L222.132,477.41z"/>
<path id="color_x5F_2" fill="#DB4A3E" d="M194.618,230.793l-0.121,0.042c-0.771,0.27-10.322,3.94-9.25,3.883
	c3.276,3.413,4.995,7.472,4.595,11.146c-0.909-1.055-2.047-1.895-3.354-2.315c-2.494-0.803-5.707,0.125-6.819,2.685
	c-0.828,1.909,0.118,3.847,1.797,4.929c0.732,0.478,1.523,0.796,2.34,0.956c0.776,0.159,1.575,0.181,2.357,0.069
	c-1.035,0.766-2.246,1.36-3.594,1.775c-2.528,0.795-5.517,0.948-8.639,0.399c-0.04-0.001-0.071-0.005-0.105-0.016
	c-1.477-0.264-2.987-0.68-4.484-1.26c-0.645-0.251-1.284-0.529-1.927-0.836c-2.37-1.141-7.151-5.114-9.188-9.839
	c-1.391-3.228-2.582-7.534-1.271-11.793c-0.246,0.021-0.492,0.038-0.743,0.038c-5.136,0-9.299-4.163-9.299-9.299
	s4.163-9.299,9.299-9.299c5.137,0,9.301,4.163,9.301,9.299c0,0.004,0,0.008,0,0.012c0.668-0.36,1.373-0.712,2.133-1.051l0.055-0.021
	c0.178-0.068,0.366-0.136,0.553-0.198c3.752-1.308,2.598-0.376,5.941-1.384c0.656-0.196,1.487-0.471,2.562-0.845
	c4.698-1.66,6.904-5.388,10.876-6.77c5.372-1.871,11.262,1.039,13.155,6.482C202.67,222.994,199.916,228.874,194.618,230.793z
	 M242.171,298.963c-4.595-1.563-10.195-10.707-4.604-17.726c0.089-0.112,0.2-0.232,0.312-0.354
	c-6.555-2.166-12.711-3.489-12.711-3.489s-47.761-11.66-59.878-11.978l-5.938-0.921c-0.183-0.047-0.383-0.082-0.616-0.096
	c-17.229-1.033-90.686,28.67-89.864,45.391c0.445,9.059,19.865,2.082,19.865,2.082s24.457-10.152,39.767-17.48
	c-4.222,8.928-7.688,19.758-8.761,32.171c-1.97,22.791-23.727,37.446-23.727,37.446l60.609,0.836c0,0-6.065-5.646-0.413-16.696
	c4.178-8.165,11.375-18.521,17.736-28.484c0.286,0.016,0.567,0.037,0.856,0.037c8.731,0,15.813-6.042,15.813-13.495
	c0.001-3.734-1.776-7.115-4.646-9.558c0.244-0.858,0.435-1.683,0.564-2.469C201.644,299.246,227.269,302.636,242.171,298.963z
	 M514.133,254.767l-1.648-1.44c0,0-26.697-17.335-36.702-20.861c3.997-12.639,6.438-26.065,6.438-26.065s0.19-1.526,0.464-4.02
	c0.063-0.333,0.153-1.185,0.26-2.439c0.86-8.328,3.697-54.674-0.707-60.674c-9.822-13.381-22.888-11.141-22.888-11.141
	l-14.038,10.245c-27.608,18.888-70.956,57.933-67.42,77.987c0.133,10.872,7.816,31.827,14.972,49.036l15.426-4.438l0.225-2.175
	c0,0-1.366-34.313-4.509-43.093c11.61-5.087,22.719-11.758,22.719-11.758s8.14-5.284,16.681-11.574
	c-1.462,25.649,2.424,55.697,17,61.623c0.001,0,0.002,0,0.003,0.001c9.085,6.112,30.413,11.878,48.441,15.942L514.133,254.767z"/>
<path id="color_x5F_1" fill="#2E67B1" d="M228.299,462.252c0.001,0.016-22.749-23.985-22.749-23.985s-17.128-27.26-20.368-37.18
	c-15.274,1.708-32.13,1.603-32.13,1.603s-8.497-0.376-18.865-1.242c-2.776,11.404-7.361,23.551-13.061,33.806
	c0,0.001,0,0.003,0,0.004c0,0-0.008,0.011-0.015,0.022c-2.514,4.521-5.244,8.673-8.132,12.229
	c-9.463,13.8-25.573,35.97-39.599,48.771c-11.781,10.753-20.54,20.791-21,21.24c-0.014,0.008-0.018,0.01-0.018,0.01
	s16.545-54.143,22.156-59.287c2.604-2.39,7.172-5.588,12.458-8.878c-1.572-14.761,3.524-39.816,3.524-39.816
	s1.802-7.502,4.372-16.32c-14.482-9.712-7.922-28.082,1.807-31.08l58.747,1.369c22.73,4.869,45.644,13.963,52.559,25.012
	C214.288,396.114,228.195,461.613,228.299,462.252z M386.001,128.127c2.418-1.742,5.191-3.758,8.409-6.098l-0.331-0.468
	l-16.105-22.774c0,0-0.661,0.376-1.784,1.063c-5.765,3.525-23.908,15.385-29.688,28.276c-0.188,0.417-0.271,0.884-0.267,1.381
	l-4.663,24.271c-1.278,3.517,0,26.262,0,26.262h0.001h28.614h0.003c0,0,0.391-2.656,0.761-6.781
	c16.374,2.183,34.002-1.444,34.002-1.444l54.396-43.688H386.001L386.001,128.127z"/>
</svg>
